<svg width="114" height="111" viewBox="0 0 114 111" fill="none" xmlns="http://www.w3.org/2000/svg">
<line x1="56" y1="26" x2="56" y2="104" stroke="#EBEDF2" stroke-width="4" stroke-linecap="round" stroke-dasharray="3 6"/>
<path d="M35.5 46.8776V96.5088C35.5 99.1097 33.6782 101.355 31.1331 101.891L9.13306 106.522C5.71454 107.242 2.5 104.634 2.5 101.14V52.6671C2.5 50.1686 4.18406 47.984 6.60029 47.3482L28.6003 41.5587C32.0878 40.641 35.5 43.2714 35.5 46.8776Z" stroke="#EBEDF2" stroke-width="5"/>
<path d="M76 96.5536V47.3599C76 42.12 80.9536 38.2948 86.0232 39.62L108.023 45.3706C111.544 46.2909 114 49.4715 114 53.1105V101.154C114 106.231 109.332 110.024 104.363 108.985L82.3625 104.384C78.6555 103.609 76 100.341 76 96.5536Z" fill="#EBEDF2"/>
<path d="M88.2013 28.9864C88.3168 29.797 87.4624 30.3953 86.7401 30.0095L77.931 25.304C77.2731 24.9526 77.2176 24.0306 77.8286 23.6028L85.2289 18.4211C85.8399 17.9933 86.6873 18.3608 86.7925 19.0992L88.2013 28.9864Z" fill="#EBEDF2"/>
<path d="M80.5464 22.1579C81.1859 22.6845 82.1313 22.593 82.6579 21.9536C83.1845 21.3141 83.093 20.3687 82.4536 19.8421L80.5464 22.1579ZM26.6102 19.7924C25.9433 20.2838 25.801 21.2229 26.2924 21.8898C26.7838 22.5567 27.7229 22.699 28.3898 22.2076L26.6102 19.7924ZM82.4536 19.8421L78.0077 16.1808L76.1006 18.4966L80.5464 22.1579L82.4536 19.8421ZM33.1526 14.9717L26.6102 19.7924L28.3898 22.2076L34.9322 17.3869L33.1526 14.9717ZM78.0077 16.1808C65.0985 5.54968 46.6158 5.05148 33.1526 14.9717L34.9322 17.3869C47.2888 8.28201 64.2524 8.73926 76.1006 18.4966L78.0077 16.1808Z" fill="#EBEDF2"/>
</svg>
