<svg width="13" height="17" viewBox="0 0 13 17" fill="none" xmlns="http://www.w3.org/2000/svg">
<path d="M8 2V2C8 1.44772 7.55228 1 7 1H6C5.44772 1 5 1.44772 5 2V2M1.75 2.5H11.25C11.6642 2.5 12 2.83579 12 3.25V3.25C12 3.66421 11.6642 4 11.25 4H1.75C1.33579 4 1 3.66421 1 3.25V3.25C1 2.83579 1.33579 2.5 1.75 2.5ZM2.54649 5H10.4535C11.0236 5 11.4784 5.47589 11.4525 6.04541L11.0434 15.0454C11.0191 15.5795 10.5791 16 10.0444 16H2.95558C2.42095 16 1.98089 15.5795 1.95661 15.0454L1.54752 6.04541C1.52163 5.47589 1.97638 5 2.54649 5Z" stroke="white"/>
</svg>
