<svg width="424" height="398" viewBox="0 0 424 398" fill="none" xmlns="http://www.w3.org/2000/svg">
<path d="M27 172C12.0883 172 0 184.088 0 199C0 213.912 12.0883 226 27 226V172ZM416.092 218.092C426.636 207.548 426.636 190.452 416.092 179.908L244.265 8.08117C233.721 -2.46299 216.625 -2.46299 206.081 8.08117C195.537 18.6253 195.537 35.7208 206.081 46.2649L358.816 199L206.081 351.735C195.537 362.279 195.537 379.375 206.081 389.919C216.625 400.463 233.721 400.463 244.265 389.919L416.092 218.092ZM27 226H397V172H27V226Z" fill="#EBEDF2"/>
</svg>
